<svg width="512" height="512" viewBox="0 0 512 512" fill="none" xmlns="http://www.w3.org/2000/svg">
<path d="M470.918 36.9458H405.477C401.335 36.9458 397.977 40.3044 397.977 44.447C397.977 48.5897 401.335 51.9483 405.477 51.9483H470.918C475.059 51.9483 478.417 48.5897 478.417 44.447C478.417 40.3044 475.06 36.9458 470.918 36.9458Z" fill="url(#paint0_linear)"/>
<path d="M368.315 51.9483H376.292C380.435 51.9483 383.793 48.5897 383.793 44.447C383.793 40.3044 380.435 36.9458 376.292 36.9458H368.315C364.173 36.9458 360.815 40.3044 360.815 44.447C360.815 48.5897 364.173 51.9483 368.315 51.9483Z" fill="url(#paint1_linear)"/>
<path d="M368.315 87.1865H470.919C475.061 87.1865 478.419 83.8279 478.419 79.6852C478.419 75.5424 475.061 72.1838 470.919 72.1838H368.315C364.173 72.1838 360.815 75.5424 360.815 79.6852C360.815 83.8279 364.173 87.1865 368.315 87.1865Z" fill="url(#paint2_linear)"/>
<path d="M395.442 443.866C395.442 413.901 385.44 384.505 367.222 360.754L368.612 335.144C369.558 317.711 355.726 302.963 338.134 302.963H256.036C252.259 300.293 249.968 295.958 249.968 291.275V270.33C262.697 262.097 271.634 252.707 278.199 241.533H292.713C309.504 241.533 323.164 227.87 323.164 211.076V155.054C323.164 145.606 317.699 137.253 309.526 133.302V93.9846C309.526 76.0855 294.967 61.5229 277.071 61.5229H276.23C275.718 61.5229 275.302 61.1058 275.302 60.5947C275.302 42.6955 260.742 28.1329 242.846 28.1329H163.417C123.991 28.1329 91.9137 60.2156 91.9137 99.6496V133.301C83.7417 137.252 78.2757 145.605 78.2757 155.053V183.545C78.2757 196.875 89.1187 207.72 102.447 207.72H112.129C114.635 228.92 124.578 248.281 140.152 261.741C143.806 264.9 147.585 267.722 151.472 270.242V291.274C151.472 295.943 149.172 300.279 145.378 302.962H63.3088C45.8529 302.962 31.8779 317.574 32.8319 335.143L34.2219 360.753C16.0029 384.505 6.00098 413.901 6.00098 443.866V472.12C2.27199 476.3 0 481.806 0 487.835C0 500.865 10.599 511.465 23.6269 511.465H377.816C390.844 511.465 401.443 500.864 401.443 487.835C401.443 481.806 399.171 476.3 395.442 472.121V443.866ZM380.442 443.866V464.352C379.579 464.256 378.704 464.203 377.816 464.203H361.608L365.841 386.2C375.334 403.834 380.442 423.7 380.442 443.866V443.866ZM307.395 151.392C307.888 152.52 308.166 153.758 308.166 155.055V183.547C308.166 188.604 304.052 192.719 298.995 192.719H290.076V164.441L294.698 162.831C300.416 160.839 304.913 156.638 307.395 151.392V151.392ZM257.322 238.305H238.5C235.466 238.305 232.997 235.837 232.997 232.802C232.997 229.768 235.466 227.299 238.5 227.299H257.322C260.356 227.299 262.824 229.768 262.824 232.802C262.824 235.837 260.356 238.305 257.322 238.305ZM292.715 226.531H285.134C287.246 220.508 288.704 214.199 289.473 207.722H298.995C302.24 207.722 305.336 207.075 308.166 205.91V211.078C308.166 219.599 301.234 226.531 292.715 226.531V226.531ZM106.916 99.6516C106.916 68.4901 132.264 43.1376 163.419 43.1376H242.848C252.473 43.1376 260.304 50.97 260.304 60.5967C260.304 69.3813 267.45 76.5275 276.232 76.5275H277.073C286.698 76.5275 294.528 84.3599 294.528 93.9866V141.958C294.528 144.977 292.613 147.671 289.763 148.664L274.002 154.154C273.367 154.374 272.712 153.916 272.712 153.233L272.741 123.424C272.832 101.669 252.465 82.6956 223.929 91.8633C209.577 96.4761 191.816 96.4601 177.512 91.8633C149.273 82.7856 128.61 101.422 128.701 123.401L128.736 153.235C128.736 153.923 128.066 154.376 127.446 154.154L111.68 148.663C108.83 147.671 106.915 144.976 106.915 141.957V99.6516H106.916ZM93.2777 183.547V155.054C93.2777 153.758 93.5557 152.519 94.0487 151.391C96.5317 156.638 101.029 160.839 106.749 162.831L111.37 164.44V192.718H102.45C97.3917 192.719 93.2777 188.603 93.2777 183.547ZM126.507 199.057C126.258 189.196 126.411 178.728 126.369 169.144C126.831 169.184 127.294 169.207 127.757 169.207C136.674 169.207 143.751 161.958 143.736 153.213L143.701 123.36C143.65 111.18 154.573 100.247 172.923 106.146C190.315 111.735 211.183 111.718 228.518 106.146C246.001 100.528 257.795 110.419 257.741 123.385L257.712 153.215C257.7 162.513 265.646 169.962 275.074 169.144V199.664C274.856 206.148 273.789 212.475 271.979 218.492C268.254 214.675 263.063 212.296 257.322 212.296H238.5C227.195 212.296 217.997 221.494 217.997 232.801C217.997 244.108 227.195 253.307 238.5 253.307H248.029C234.176 264.122 218.423 269.761 201.114 270.048C163.25 269.745 127.59 241.767 126.507 199.057V199.057ZM166.474 291.276V278.15C177.315 282.64 188.88 284.967 201.094 285.053H201.147C201.186 285.053 201.225 285.053 201.264 285.052C213.155 284.867 224.413 282.562 234.971 278.211V291.275C234.971 295.37 235.828 299.335 237.406 302.963H164.03C165.613 299.334 166.474 295.368 166.474 291.276V291.276ZM35.6019 386.2L36.7859 408.024C37.0109 412.162 40.5539 415.344 44.6809 415.109C48.8168 414.885 51.9878 411.349 51.7638 407.212L47.8088 334.332C47.3278 325.467 54.3618 317.966 63.3088 317.966H338.135C347.016 317.966 354.119 325.4 353.635 334.332L346.587 464.204H228.979C230.412 455.636 234.27 447.576 240.213 440.973L240.428 440.733C263.13 415.331 256.335 375.608 226.991 358.931C219.461 354.652 209.898 359.988 209.898 368.858V402.895C209.898 404.455 208.629 405.723 207.069 405.723H194.373C192.813 405.723 191.544 404.454 191.544 402.895V368.858C191.544 360.005 181.996 354.643 174.451 358.931C145.024 375.654 138.367 415.392 161.037 440.758L161.229 440.973C167.172 447.575 171.03 455.635 172.463 464.203H54.8568L53.6538 442.026C53.4298 437.89 49.8948 434.714 45.7589 434.942C41.6229 435.166 38.4519 438.702 38.6759 442.839L39.8349 464.203H23.6269C22.7389 464.203 21.8639 464.257 21.0009 464.352V443.866C21.0009 423.701 26.1099 403.834 35.6019 386.2ZM187.618 464.203C186.083 451.912 180.815 440.309 172.379 430.937L172.198 430.733C157.707 414.521 159.648 389.449 176.545 375.622V402.894C176.545 412.726 184.543 420.725 194.374 420.725H207.07C216.901 420.725 224.899 412.725 224.899 402.894V375.622C241.684 389.357 243.834 414.411 229.227 430.754L229.065 430.936C220.628 440.309 215.36 451.912 213.825 464.203H187.618ZM377.816 496.463H23.6269C18.8699 496.463 15 492.592 15 487.836C15 483.079 18.8699 479.207 23.6269 479.207H377.816C382.573 479.207 386.443 483.078 386.443 487.836C386.443 492.593 382.573 496.463 377.816 496.463Z" fill="url(#paint3_linear)"/>
<path d="M504.499 51.336C508.641 51.336 511.999 47.9775 511.999 43.8347V29.3162C511.999 13.1513 498.85 0 482.687 0H356.547C340.384 0 327.235 13.1513 327.235 29.3162V92.4153C327.235 108.581 340.384 121.732 356.547 121.732C359.435 121.732 361.785 124.083 361.785 126.971V165.993C361.785 171.629 365.433 176.426 370.864 177.929C376.327 179.442 381.907 177.167 384.788 172.362L413.618 124.277C414.559 122.708 416.281 121.732 418.111 121.732H482.688C498.851 121.732 512 108.581 512 92.4153V78.9049C512 74.7622 508.642 71.4036 504.5 71.4036C500.358 71.4036 497 74.7622 497 78.9049V92.4153C497 100.309 490.58 106.73 482.688 106.73H418.11C411.04 106.73 404.389 110.497 400.753 116.562L376.784 156.539V126.971C376.784 115.81 367.705 106.73 356.546 106.73C348.654 106.73 342.234 100.309 342.234 92.4153V29.3162C342.234 21.4238 348.654 15.0026 356.546 15.0026H482.687C490.579 15.0026 496.999 21.4238 496.999 29.3162V43.8347C496.999 47.9775 500.357 51.336 504.499 51.336V51.336Z" fill="url(#paint4_linear)"/>
<defs>
<linearGradient id="paint0_linear" x1="438.197" y1="36.9458" x2="438.197" y2="51.9483" gradientUnits="userSpaceOnUse">
<stop stop-color="white" stop-opacity="0.5"/>
<stop offset="1" stop-color="#8D3DAF"/>
</linearGradient>
<linearGradient id="paint1_linear" x1="372.304" y1="36.9458" x2="372.304" y2="51.9483" gradientUnits="userSpaceOnUse">
<stop stop-color="white" stop-opacity="0.5"/>
<stop offset="1" stop-color="#8D3DAF"/>
</linearGradient>
<linearGradient id="paint2_linear" x1="419.617" y1="72.1838" x2="419.617" y2="87.1865" gradientUnits="userSpaceOnUse">
<stop stop-color="white" stop-opacity="0.5"/>
<stop offset="1" stop-color="#8D3DAF"/>
</linearGradient>
<linearGradient id="paint3_linear" x1="200.721" y1="28.1329" x2="200.721" y2="511.465" gradientUnits="userSpaceOnUse">
<stop stop-color="white" stop-opacity="0.5"/>
<stop offset="1" stop-color="#8D3DAF"/>
</linearGradient>
<linearGradient id="paint4_linear" x1="419.618" y1="0" x2="419.618" y2="178.393" gradientUnits="userSpaceOnUse">
<stop stop-color="white" stop-opacity="0.5"/>
<stop offset="1" stop-color="#8D3DAF"/>
</linearGradient>
</defs>
</svg>
