<svg width="512" height="443" viewBox="0 0 512 443" fill="none" xmlns="http://www.w3.org/2000/svg">
<path d="M494.5 0H17.5C7.851 0 0 7.85241 0 17.5031V79.1092C0 88.808 15 88.808 15 79.1092V17.5031C15 16.1249 16.121 15.0027 17.5 15.0027H494.5C495.879 15.0027 497 16.1249 497 17.5031V383.308C497 384.686 495.879 385.808 494.5 385.808H398.388V370.199H473.822C477.965 370.199 481.322 366.841 481.322 362.698V284.145C481.322 274.446 466.322 274.446 466.322 284.145V355.197H398.388V321.914C398.632 321.935 398.878 321.956 399.109 321.977C405.335 322.524 413.079 323.205 418.444 317.829C423.803 312.459 423.125 304.706 422.58 298.476C421.993 291.789 422.625 289.959 427.763 285.687C440.992 274.685 441.238 262.905 427.763 251.701C422.625 247.426 421.996 245.598 422.58 238.911C424.048 222.131 416.212 213.907 399.109 215.411C392.434 215.997 390.623 215.363 386.367 210.223C375.384 196.96 363.598 196.715 352.411 210.223C348.155 215.362 346.345 215.999 339.67 215.411C322.881 213.935 314.7 221.817 316.198 238.911C316.782 245.599 316.153 247.426 311.015 251.701C297.786 262.702 297.541 274.484 311.015 285.687C316.153 289.962 316.782 291.79 316.198 298.478C314.623 316.45 323.205 323.399 340.388 321.915V355.199H45.679V45.6132H466.322V244.138C466.322 253.837 481.322 253.837 481.322 244.138V38.1118C481.322 33.9691 477.965 30.6105 473.822 30.6105H38.179C34.036 30.6105 30.679 33.9691 30.679 38.1118V362.698C30.679 366.841 34.036 370.199 38.179 370.199H340.388V385.808H17.5C16.121 385.808 15 384.686 15 383.308V117.115C15 107.416 0 107.416 0 117.115V383.308C0 392.959 7.851 400.811 17.5 400.811H340.388V434.767C341.456 440.932 345.011 443.2 351.051 441.568L369.388 433.038L387.725 441.568C392.262 443.679 398.388 440.343 398.388 434.767V400.811H494.5C504.149 400.811 512 392.959 512 383.308V17.5031C512 7.85141 504.149 0 494.5 0V0ZM338.355 307.03C330.847 307.691 330.483 307.289 331.139 299.784C332.147 288.265 329.498 281.544 320.603 274.148C314.517 269.086 314.518 268.297 320.603 263.235C329.498 255.84 332.148 249.119 331.139 237.601C330.483 230.094 330.847 229.696 338.355 230.353C349.873 231.369 356.584 228.699 363.961 219.79C369.002 213.705 369.773 213.705 374.814 219.79C382.193 228.699 388.902 231.365 400.42 230.353C407.929 229.692 408.292 230.094 407.636 237.6C406.628 249.119 409.277 255.839 418.172 263.234C424.257 268.296 424.26 269.087 418.171 274.148C409.276 281.545 406.626 288.263 407.635 299.782C408.294 307.287 407.928 307.69 400.421 307.03C395.71 306.616 390.366 306.146 385.662 308.1C381.109 309.992 377.908 313.855 374.813 317.593C373.355 319.353 370.694 322.567 369.386 323.142C368.079 322.567 365.418 319.353 363.96 317.593C360.865 313.856 357.665 309.992 353.111 308.1C348.257 306.62 343.338 306.263 338.355 307.03ZM372.551 417.964C370.545 417.031 368.231 417.031 366.225 417.964L355.388 423.006V330.64C358.947 334.554 363.338 338.188 369.388 338.188C375.438 338.188 379.829 334.555 383.388 330.641V423.006L372.551 417.964Z" fill="url(#paint0_linear)"/>
<path d="M97.2632 108.404H355.81C365.507 108.404 365.507 93.4016 355.81 93.4016H97.2632C87.5652 93.4016 87.5652 108.404 97.2632 108.404V108.404Z" fill="url(#paint1_linear)"/>
<path d="M422.237 146.529C422.237 142.386 418.88 139.027 414.737 139.027H97.2635C87.5665 139.027 87.5665 154.03 97.2635 154.03H414.738C418.88 154.03 422.237 150.671 422.237 146.529V146.529Z" fill="url(#paint2_linear)"/>
<path d="M285.137 192.154C285.137 188.012 281.78 184.653 277.637 184.653H97.2635C87.5665 184.653 87.5665 199.656 97.2635 199.656H277.637C281.779 199.656 285.137 196.297 285.137 192.154Z" fill="url(#paint3_linear)"/>
<path d="M186.651 296.715C182.562 296.722 178.472 296.727 174.383 296.73C166.516 296.736 162.185 294.639 160.578 286.295C159.111 278.679 148.128 279.649 146.115 286.295C145.224 289.239 140.724 297.665 136.793 296.976C134.71 296.611 133.8 293.397 133.03 291.733C131.531 288.494 130.439 285.06 129.504 281.619C125.556 267.083 124.768 251.905 122.298 237.094C120.866 228.506 107.777 230.934 107.566 239.089C106.894 265.064 102.648 290.684 93.4016 315.031C89.9706 324.066 104.466 327.973 107.866 319.02C111.431 309.632 114.261 300.02 116.457 290.264C117.635 293.819 119.04 297.305 120.755 300.697C125.135 309.354 134.068 314.476 143.626 310.626C147.037 309.251 150.148 306.849 152.797 303.925C159.893 312.11 170.45 311.739 180.299 311.727C195.146 311.708 209.993 311.673 224.841 311.632C234.492 311.605 234.51 296.602 224.841 296.629C212.111 296.665 199.381 296.694 186.651 296.715V296.715Z" fill="url(#paint4_linear)"/>
<path d="M369.388 297.991C385.541 297.991 398.683 284.848 398.683 268.692C398.683 252.536 385.541 239.393 369.388 239.393C353.236 239.393 340.094 252.537 340.094 268.692C340.094 284.847 353.235 297.991 369.388 297.991ZM369.388 254.395C377.27 254.395 383.683 260.809 383.683 268.692C383.683 276.574 377.27 282.989 369.388 282.989C361.506 282.989 355.094 276.575 355.094 268.692C355.094 260.808 361.506 254.395 369.388 254.395Z" fill="url(#paint5_linear)"/>
<defs>
<linearGradient id="paint0_linear" x1="256" y1="0" x2="256" y2="442.207" gradientUnits="userSpaceOnUse">
<stop stop-color="white" stop-opacity="0.5"/>
<stop offset="1" stop-color="#8D3DAF"/>
</linearGradient>
<linearGradient id="paint1_linear" x1="226.536" y1="93.4016" x2="226.536" y2="108.404" gradientUnits="userSpaceOnUse">
<stop stop-color="white" stop-opacity="0.5"/>
<stop offset="1" stop-color="#8D3DAF"/>
</linearGradient>
<linearGradient id="paint2_linear" x1="256.114" y1="139.027" x2="256.114" y2="154.03" gradientUnits="userSpaceOnUse">
<stop stop-color="white" stop-opacity="0.5"/>
<stop offset="1" stop-color="#8D3DAF"/>
</linearGradient>
<linearGradient id="paint3_linear" x1="187.564" y1="184.653" x2="187.564" y2="199.656" gradientUnits="userSpaceOnUse">
<stop stop-color="white" stop-opacity="0.5"/>
<stop offset="1" stop-color="#8D3DAF"/>
</linearGradient>
<linearGradient id="paint4_linear" x1="162.483" y1="231.705" x2="162.483" y2="324.086" gradientUnits="userSpaceOnUse">
<stop stop-color="white" stop-opacity="0.5"/>
<stop offset="1" stop-color="#8D3DAF"/>
</linearGradient>
<linearGradient id="paint5_linear" x1="369.388" y1="239.393" x2="369.388" y2="297.991" gradientUnits="userSpaceOnUse">
<stop stop-color="white" stop-opacity="0.5"/>
<stop offset="1" stop-color="#8D3DAF"/>
</linearGradient>
</defs>
</svg>
