<svg width="1726" height="911" viewBox="0 0 1726 911" fill="none" xmlns="http://www.w3.org/2000/svg">
<path d="M0 721V40L1726 40V877C1649.89 909.5 1438.93 944.5 1400.58 847C1339.19 690.943 925.328 861 742.54 893.5C551.367 927.491 330.46 869.019 230.133 759C92.8923 608.5 18.978 688.333 0 721Z" fill="#181D27" fill-opacity="0.5"/>
<path d="M0 681V4.67151e-05L1726 0V852C1649.89 884.5 1476.33 922.2 1400.58 807C1305.89 663 939.859 824.639 750 871C610.5 905.064 372 879 230.133 719C95.0053 566.6 18.978 648.333 0 681Z" fill="#181D27"/>
</svg>
