<svg width="32" height="33" viewBox="0 0 32 33" fill="none" xmlns="http://www.w3.org/2000/svg">
<path d="M16.0004 0.0154356C9.44682 0.0154356 3.22355 -0.567545 0.846499 5.533C-0.135364 8.05263 0.00722305 11.3249 0.00722305 16.0104C0.00722305 20.122 -0.124534 23.9862 0.846499 26.486C3.21813 32.5902 9.49194 32.0054 15.9968 32.0054C22.2724 32.0054 28.743 32.6588 31.1489 26.486C32.1325 23.9411 31.9882 20.7176 31.9882 16.0104C31.9882 9.76187 32.3329 5.72793 29.3025 2.69931C26.2342 -0.369007 22.0847 0.0154356 15.9932 0.0154356H16.0004ZM14.5673 2.89785C28.2376 2.87619 29.9775 1.35648 29.0173 22.4683C28.6762 29.9352 22.9908 29.1158 16.0022 29.1158C3.25964 29.1158 2.89325 28.7512 2.89325 16.0032C2.89325 3.10722 3.90399 2.90507 14.5673 2.89424V2.89785ZM24.5375 5.55285C23.4781 5.55285 22.6189 6.41198 22.6189 7.47146C22.6189 8.53093 23.4781 9.39006 24.5375 9.39006C25.597 9.39006 26.4562 8.53093 26.4562 7.47146C26.4562 6.41198 25.597 5.55285 24.5375 5.55285V5.55285ZM16.0004 7.79634C11.4647 7.79634 7.78812 11.4747 7.78812 16.0104C7.78812 20.5461 11.4647 24.2227 16.0004 24.2227C20.5361 24.2227 24.2109 20.5461 24.2109 16.0104C24.2109 11.4747 20.5361 7.79634 16.0004 7.79634V7.79634ZM16.0004 10.6788C23.0485 10.6788 23.0575 21.3421 16.0004 21.3421C8.95409 21.3421 8.94326 10.6788 16.0004 10.6788Z" fill="white"/>
</svg>
