<svg width="512" height="512" viewBox="0 0 512 512" fill="none" xmlns="http://www.w3.org/2000/svg">
<path d="M508.428 183.703L451.226 34.9529C440.387 6.83311 408.808 -7.17351 380.693 3.66771C380.285 3.82545 379.878 3.98745 379.473 4.15478L93.6194 122.671C66.4008 133.838 53.0232 164.653 63.4501 192.169L71.31 213.152H53.28C23.8684 213.185 0.0330336 237.025 0 266.442V458.284C0.0330336 487.701 23.8684 511.54 53.28 511.573H415.584C444.996 511.54 468.831 487.701 468.864 458.284V266.442C468.847 263.549 468.59 260.663 468.097 257.813L477.994 253.805C505.456 242.548 518.953 211.458 508.428 183.703ZM53.28 230.206H415.584C434.718 230.26 450.502 245.206 451.601 264.311H17.2627C18.3624 245.205 34.1461 230.259 53.28 230.206ZM138.963 178.843L195.943 150.34L207.656 179.645L150.676 208.14L138.963 178.843ZM451.815 458.285C451.791 478.289 435.584 494.498 415.584 494.522H53.28C33.2798 494.498 17.073 478.289 17.0496 458.285V349.574H451.815V458.285ZM451.815 332.522H17.0496V281.364H451.815V332.522ZM471.601 238.05L462.692 241.657C453.491 224.152 435.357 213.181 415.584 213.153H178.782L222.301 191.385C226.27 189.404 228.057 184.71 226.41 180.591L208.329 135.402C206.58 131.03 201.62 128.902 197.249 130.65C197.028 130.739 196.812 130.836 196.6 130.942L124.318 167.111C120.353 169.095 118.57 173.788 120.218 177.905L134.318 213.153H89.5104L79.4171 186.227C72.2616 167.322 81.4524 146.155 100.149 138.48L385.995 19.9636C405.104 12.0384 427.019 21.1072 434.944 40.2201C435.068 40.5174 435.187 40.8169 435.302 41.1175L492.503 189.868C499.74 208.94 490.47 230.307 471.601 238.05Z" fill="url(#paint0_linear)"/>
<path d="M306.653 470.546C322.539 479.777 342.155 479.777 358.041 470.546C382.467 484.739 413.772 476.44 427.963 452.01C442.153 427.579 433.855 396.269 409.43 382.076C401.59 377.52 392.682 375.131 383.616 375.152C374.628 375.156 365.803 377.545 358.041 382.076C333.616 367.882 302.311 376.181 288.12 400.611C273.929 425.042 282.227 456.352 306.653 470.546ZM372.295 394.286C375.921 392.95 379.751 392.246 383.616 392.206C402.448 392.206 417.715 407.475 417.715 426.311C417.715 445.147 402.448 460.416 383.616 460.416C379.751 460.376 375.921 459.673 372.295 458.336C387.388 439.654 387.388 412.967 372.295 394.286ZM358.041 403.989C369.408 416.7 369.408 435.922 358.041 448.633C346.675 435.922 346.675 416.699 358.041 403.989ZM332.467 392.206C336.332 392.245 340.162 392.95 343.788 394.286C328.695 412.967 328.695 439.655 343.788 458.336C340.162 459.673 336.332 460.376 332.467 460.416C313.635 460.416 298.368 445.147 298.368 426.311C298.368 407.474 313.635 392.206 332.467 392.206Z" fill="url(#paint1_linear)"/>
<path d="M359.595 175.963L366.521 191.546L447.848 155.388L440.923 139.805L359.595 175.963Z" fill="url(#paint2_linear)"/>
<path d="M422.774 103.707L305.305 157.937L312.447 173.413L429.916 119.183L422.774 103.707Z" fill="url(#paint3_linear)"/>
<defs>
<linearGradient id="paint0_linear" x1="256" y1="0" x2="256" y2="511.573" gradientUnits="userSpaceOnUse">
<stop stop-color="white" stop-opacity="0.5"/>
<stop offset="1" stop-color="#8D3DAF"/>
</linearGradient>
<linearGradient id="paint1_linear" x1="358.041" y1="375.144" x2="358.041" y2="477.477" gradientUnits="userSpaceOnUse">
<stop stop-color="white" stop-opacity="0.5"/>
<stop offset="1" stop-color="#8D3DAF"/>
</linearGradient>
<linearGradient id="paint2_linear" x1="363.058" y1="183.755" x2="444.391" y2="147.608" gradientUnits="userSpaceOnUse">
<stop stop-color="white" stop-opacity="0.5"/>
<stop offset="1" stop-color="#8D3DAF"/>
</linearGradient>
<linearGradient id="paint3_linear" x1="364.039" y1="130.822" x2="371.184" y2="146.297" gradientUnits="userSpaceOnUse">
<stop stop-color="white" stop-opacity="0.5"/>
<stop offset="1" stop-color="#8D3DAF"/>
</linearGradient>
</defs>
</svg>
