<svg width="512" height="450" viewBox="0 0 512 450" fill="none" xmlns="http://www.w3.org/2000/svg">
<path d="M484.097 137.305H455.404V40.3181C455.404 18.0862 437.32 0 415.092 0H67.7559C45.5279 0 27.4449 18.0862 27.4449 40.3181V286.472C27.4449 295.732 30.7089 304.438 36.1919 311.373H12.979C5.82199 311.372 0 317.22 0 324.406V343.438C0 361.731 14.769 376.613 32.9219 376.613H218.925C223.068 376.613 226.425 373.254 226.425 369.111C226.425 364.969 223.068 361.61 218.925 361.61H32.9219C23.04 361.61 15 353.458 15 343.438V326.375H330.96V361.61H253.925C249.782 361.61 246.425 364.969 246.425 369.111C246.425 373.254 249.782 376.613 253.925 376.613H330.96V421.909C330.96 437.298 343.478 449.819 358.864 449.819H484.096C499.483 449.819 512 437.298 512 421.909C512 410.445 512 173.417 512 165.215C512.001 149.825 499.483 137.305 484.097 137.305V137.305ZM330.96 311.372H63.2199C51.3379 309.193 42.4459 298.586 42.4459 286.471V40.3181C42.4459 26.3587 53.7999 15.0027 67.7569 15.0027H415.093C429.05 15.0027 440.405 26.3587 440.405 40.3181V137.306H425.928C425.928 126.815 425.928 54.1626 425.928 42.6495C425.928 35.2672 419.923 29.2602 412.542 29.2602C410.499 29.2602 80.7358 29.2602 70.3089 29.2602C62.9269 29.2602 56.9219 35.2662 56.9219 42.6495V283.772C56.9219 291.154 62.9269 297.162 70.3089 297.162H330.961V311.372H330.96ZM410.927 44.2618V64.1784H110.188V44.2618H410.927ZM95.1878 44.2618V64.1784H71.9209V44.2618H95.1878ZM330.96 165.214V282.158H71.9209V79.181H410.927V137.305H358.865C343.478 137.305 330.96 149.825 330.96 165.214ZM345.96 194.664H361.041V209.685H345.96V194.664ZM497.001 421.909C497.001 429.026 491.212 434.816 484.097 434.816H358.864C351.749 434.816 345.96 429.026 345.96 421.909V400.41H497.001V421.909ZM497.001 385.407H345.96C345.96 324.171 345.96 285.86 345.96 224.688H497.001V385.407ZM497.001 209.685H376.041V194.664H497.001V209.685ZM497.001 179.662C489.346 179.662 352.786 179.662 345.96 179.662V165.214C345.96 158.098 351.749 152.308 358.864 152.308H484.096C491.211 152.308 497 158.098 497 165.214V179.662H497.001Z" fill="url(#paint0_linear)"/>
<path d="M413.51 423.536H429.453C433.596 423.536 436.953 420.177 436.953 416.035C436.953 411.892 433.596 408.533 429.453 408.533H413.51C409.367 408.533 406.01 411.892 406.01 416.035C406.01 420.177 409.367 423.536 413.51 423.536Z" fill="url(#paint1_linear)"/>
<path d="M266.172 167.976L233.988 146.027C223.803 139.08 209.971 146.39 209.971 158.721V202.619C209.971 214.948 223.798 222.261 233.988 215.313L266.172 193.364C275.108 187.27 275.106 174.068 266.172 167.976ZM257.721 180.969L225.537 202.919C225.44 202.984 225.357 203.042 225.164 202.94C224.972 202.838 224.972 202.737 224.972 202.619V158.721C224.972 158.604 224.972 158.503 225.164 158.401C225.24 158.361 225.299 158.345 225.349 158.345C225.425 158.345 225.479 158.382 225.537 158.422L257.721 180.371C257.788 180.417 257.879 180.479 257.879 180.67C257.879 180.862 257.788 180.924 257.721 180.969Z" fill="url(#paint2_linear)"/>
<path d="M236.425 110.44C197.707 110.44 166.208 141.946 166.208 180.67C166.208 219.394 197.707 250.899 236.425 250.899C275.143 250.899 306.642 219.395 306.642 180.67C306.642 141.945 275.143 110.44 236.425 110.44V110.44ZM236.425 235.898C205.978 235.898 181.207 211.123 181.207 180.671C181.207 150.218 205.978 125.444 236.425 125.444C266.871 125.444 291.642 150.219 291.642 180.671C291.642 211.122 266.871 235.898 236.425 235.898Z" fill="url(#paint3_linear)"/>
<path d="M419.906 273.092C410.379 266.595 397.484 273.459 397.484 284.944V323.151C397.484 334.73 410.458 341.447 419.907 335.002L447.917 315.899C456.262 310.21 456.26 297.885 447.918 292.196L419.906 273.092ZM412.484 321.906V286.188L438.67 304.048L412.484 321.906Z" fill="url(#paint4_linear)"/>
<path d="M421.481 366.144C447.58 366.144 471.057 349.647 479.901 325.094C481.305 321.196 479.285 316.898 475.387 315.494C471.491 314.092 467.193 316.111 465.789 320.009C459.081 338.63 441.274 351.141 421.48 351.141C395.517 351.141 374.395 330.015 374.395 304.048C374.395 278.081 395.517 256.954 421.48 256.954C442.106 256.954 460.146 270.159 466.372 289.811C467.622 293.761 471.84 295.948 475.786 294.697C479.735 293.446 481.922 289.23 480.671 285.28C472.463 259.365 448.676 241.953 421.481 241.953C387.248 241.953 359.396 269.81 359.396 304.049C359.396 338.288 387.248 366.144 421.481 366.144Z" fill="url(#paint5_linear)"/>
<defs>
<linearGradient id="paint0_linear" x1="256" y1="0" x2="256" y2="449.819" gradientUnits="userSpaceOnUse">
<stop stop-color="white" stop-opacity="0.5"/>
<stop offset="1" stop-color="#8D3DAF"/>
</linearGradient>
<linearGradient id="paint1_linear" x1="421.481" y1="408.533" x2="421.481" y2="423.536" gradientUnits="userSpaceOnUse">
<stop stop-color="white" stop-opacity="0.5"/>
<stop offset="1" stop-color="#8D3DAF"/>
</linearGradient>
<linearGradient id="paint2_linear" x1="241.422" y1="143.336" x2="241.422" y2="218.004" gradientUnits="userSpaceOnUse">
<stop stop-color="white" stop-opacity="0.5"/>
<stop offset="1" stop-color="#8D3DAF"/>
</linearGradient>
<linearGradient id="paint3_linear" x1="236.425" y1="110.44" x2="236.425" y2="250.899" gradientUnits="userSpaceOnUse">
<stop stop-color="white" stop-opacity="0.5"/>
<stop offset="1" stop-color="#8D3DAF"/>
</linearGradient>
<linearGradient id="paint4_linear" x1="425.829" y1="270.579" x2="425.829" y2="337.508" gradientUnits="userSpaceOnUse">
<stop stop-color="white" stop-opacity="0.5"/>
<stop offset="1" stop-color="#8D3DAF"/>
</linearGradient>
<linearGradient id="paint5_linear" x1="420.209" y1="241.953" x2="420.209" y2="366.144" gradientUnits="userSpaceOnUse">
<stop stop-color="white" stop-opacity="0.5"/>
<stop offset="1" stop-color="#8D3DAF"/>
</linearGradient>
</defs>
</svg>
