<svg width="512" height="516" viewBox="0 0 512 516" fill="none" xmlns="http://www.w3.org/2000/svg">
<path d="M454.11 57.8991C428.06 31.8478 395.25 13.5953 359.382 5.20041C323.513 -3.19449 286.012 -1.3977 251.11 10.3881C216.208 22.1739 185.293 43.4797 161.853 71.9022C138.412 100.325 123.379 134.733 118.448 171.246C113.68 207.241 118.822 243.855 133.32 277.144L101.938 270.866C99.9686 270.472 97.9232 270.779 96.157 271.736C94.3908 272.693 93.0155 274.238 92.2698 276.103L67.9661 336.882C67.2849 338.585 67.1663 340.461 67.6276 342.237C68.089 344.012 69.1061 345.593 70.5302 346.749C71.9542 347.905 73.7107 348.575 75.5426 348.661C77.3746 348.746 79.186 348.244 80.712 347.227L113.676 325.247L125.995 329.354L138.272 341.634C126.579 343.518 115.057 346.344 103.819 350.086C91.1845 354.322 79.7209 361.466 70.351 370.942C60.9812 380.419 53.9668 391.963 49.8726 404.647C49.4123 406.081 49.3371 407.612 49.6547 409.085C49.9724 410.558 50.6715 411.922 51.6822 413.039C52.6928 414.157 53.9795 414.989 55.413 415.452C56.8466 415.915 58.3768 415.994 59.8502 415.679L71.4037 413.208L50.2013 451.381C49.2943 453.014 48.9439 454.898 49.203 456.748C49.4621 458.598 50.3166 460.313 51.6373 461.634C52.9579 462.955 54.6728 463.809 56.5224 464.068C58.3719 464.327 60.2555 463.976 61.888 463.069L100.334 441.706L97.9021 453.87C97.607 455.346 97.7047 456.874 98.1855 458.3C98.6663 459.727 99.5133 461.002 100.642 461.999C101.77 462.995 103.14 463.677 104.615 463.978C106.09 464.278 107.618 464.185 109.046 463.709L109.346 463.611C121.824 459.418 133.161 452.391 142.469 443.082C151.777 433.773 158.802 422.434 162.995 409.954L163.166 409.444C166.906 398.204 169.731 386.679 171.616 374.984L183.894 387.263L188 399.584L166.024 432.554C165.007 434.08 164.505 435.892 164.591 437.724C164.677 439.556 165.346 441.312 166.502 442.737C167.657 444.161 169.238 445.178 171.013 445.64C172.787 446.101 174.663 445.983 176.366 445.302L237.135 420.991C239 420.245 240.544 418.869 241.501 417.103C242.457 415.336 242.764 413.291 242.37 411.321L235.945 379.189C260.816 389.852 287.594 395.352 314.654 395.355C353.719 395.296 391.89 383.661 424.347 361.917C456.804 340.173 482.09 309.297 497.012 273.188C511.934 237.08 515.823 197.358 508.187 159.04C500.551 120.722 481.733 85.5265 454.11 57.8991V57.8991ZM128.315 312.011L115.123 307.613C113.882 307.199 112.562 307.074 111.265 307.248C109.968 307.422 108.728 307.89 107.639 308.616L94.2002 317.576L105.576 289.125L143.59 296.729L128.315 312.011ZM146.862 404.006L146.691 404.518C141.649 419.528 131.528 432.308 118.074 440.654L120.833 426.856C121.155 425.247 121.009 423.58 120.414 422.051C119.818 420.522 118.798 419.195 117.473 418.228C116.147 417.261 114.573 416.693 112.936 416.592C111.298 416.49 109.666 416.86 108.232 417.657L79.8343 433.432L95.6075 405.029C96.4089 403.586 96.7781 401.944 96.671 400.297C96.5639 398.65 95.985 397.068 95.0035 395.742C94.022 394.415 92.6794 393.399 91.1361 392.815C89.5927 392.231 87.9139 392.104 86.3002 392.449L72.9409 395.303C81.2732 381.7 94.1278 371.466 109.25 366.394C115.676 364.257 122.206 362.444 128.813 360.962L116.878 384.858C116.071 386.471 115.792 388.298 116.081 390.078C116.37 391.859 117.212 393.504 118.487 394.779C119.763 396.055 121.407 396.897 123.188 397.186C124.968 397.475 126.794 397.196 128.407 396.39L152.295 384.443C150.812 391.049 148.999 397.577 146.862 404.002V404.006ZM166.148 358.295L143.777 369.478L154.962 347.103L171.74 341.509L166.148 358.295ZM183.007 362.069L193.481 330.642C193.985 329.127 194.058 327.502 193.692 325.949C193.325 324.395 192.533 322.975 191.405 321.846C190.276 320.717 188.856 319.925 187.302 319.558C185.749 319.192 184.125 319.265 182.611 319.769L151.188 330.245L142.79 321.845L192.558 272.069C204.544 260.09 218.192 249.899 233.081 241.808C233.34 242.171 233.628 242.513 233.94 242.832L270.401 279.3C270.719 279.612 271.061 279.899 271.424 280.159C263.335 295.05 253.146 308.7 241.17 320.689L191.405 370.46L183.007 362.069ZM306.867 206.365C305.976 205.474 304.901 204.79 303.716 204.361C302.532 203.932 301.267 203.769 300.013 203.883C296.546 204.198 293.097 204.618 289.664 205.118C288.036 199.678 288.251 193.852 290.275 188.546C292.299 183.24 296.019 178.752 300.857 175.779C305.695 172.806 311.379 171.515 317.026 172.107C322.673 172.699 327.966 175.14 332.083 179.051C336.199 182.962 338.909 188.124 339.789 193.734C340.67 199.344 339.673 205.088 336.953 210.073C334.233 215.058 329.943 219.004 324.749 221.299C319.555 223.593 313.749 224.106 308.233 222.76C308.681 219.594 309.059 216.415 309.349 213.221C309.463 211.965 309.3 210.699 308.871 209.514C308.442 208.328 307.757 207.252 306.865 206.36L306.867 206.365ZM305.068 239.672C314.208 241.698 323.759 240.683 332.27 236.783C340.781 232.883 347.786 226.311 352.221 218.065C356.656 209.819 358.279 200.351 356.842 191.098C355.405 181.846 350.987 173.316 344.26 166.804C337.533 160.293 328.864 156.155 319.572 155.022C310.279 153.888 300.87 155.819 292.775 160.522C284.68 165.225 278.342 172.443 274.723 181.078C271.104 189.714 270.403 199.295 272.726 208.365C261.536 211.031 250.605 214.685 240.061 219.285C235.293 202.863 236.099 185.324 242.354 169.409C248.609 153.494 259.96 140.101 274.632 131.322C289.305 122.544 306.472 118.875 323.45 120.89C340.428 122.904 356.26 130.489 368.472 142.457C380.683 154.425 388.586 170.103 390.944 187.04C393.303 203.977 389.984 221.218 381.506 236.068C373.029 250.918 359.871 262.54 344.089 269.118C328.307 275.696 310.792 276.858 294.279 272.423C298.838 261.845 302.448 250.883 305.066 239.666L305.068 239.672ZM290.935 222.295C288.75 236.568 284.827 250.519 279.253 263.837L249.401 233.979C262.717 228.404 276.666 224.48 290.935 222.295V222.295ZM286.671 288.101C306.909 294.295 328.64 293.517 348.383 285.892C368.126 278.267 384.739 264.235 395.562 246.045C406.385 227.854 410.792 206.557 408.077 185.564C405.361 164.571 395.68 145.097 380.585 130.261C365.489 115.424 345.853 106.084 324.819 103.735C303.786 101.387 282.573 106.166 264.578 117.307C246.583 128.448 232.846 145.307 225.568 165.184C218.291 185.061 217.893 206.806 224.438 226.936C214.073 232.608 204.247 239.215 195.083 246.673C183.804 219.183 182.368 188.64 191.015 160.213C199.663 131.785 217.864 107.218 242.538 90.6682C267.213 74.1186 296.846 66.6027 326.424 69.3921C356.002 72.1816 383.708 85.1051 404.855 105.976C426.002 126.847 439.29 154.384 442.473 183.927C445.655 213.471 438.536 243.206 422.319 268.103C406.102 293.001 381.784 311.53 353.479 320.557C325.174 329.583 294.62 328.553 266.987 317.64C274.436 308.415 281.025 298.526 286.671 288.099V288.101ZM195.673 419.062L204.633 405.622C205.358 404.533 205.826 403.293 206 401.995C206.173 400.698 206.049 399.378 205.635 398.137L201.238 384.941L216.512 369.666L224.114 407.684L195.673 419.062ZM441.956 325.327C414.295 353.164 378.25 371.132 339.374 376.462C302.482 381.542 264.92 375.183 231.755 358.241L231.118 355.056L253.326 332.844C253.863 332.307 254.392 331.755 254.924 331.21C281.912 343.26 311.923 346.826 340.983 341.434C370.042 336.043 396.778 321.948 417.649 301.018C474.612 244.044 474.612 151.342 417.649 94.3676C360.686 37.3935 267.999 37.3945 211.036 94.3676C189.937 115.483 175.806 142.553 170.544 171.939C165.282 201.324 169.141 231.616 181.602 258.743C181.205 259.134 180.803 259.517 180.409 259.91L158.2 282.123L154.378 281.358C137.165 248.209 130.569 210.564 135.487 173.535C139.322 145.134 149.864 118.054 166.24 94.5366C182.616 71.0189 204.356 51.7393 229.661 38.2929C254.965 24.8464 283.107 17.6196 311.758 17.2103C340.41 16.8011 368.746 23.2211 394.424 35.9393C420.103 48.6575 442.384 67.3083 459.425 90.3486C476.466 113.389 487.777 140.156 492.422 168.437C497.067 196.717 494.912 225.697 486.136 252.979C477.361 280.261 462.216 305.061 441.956 325.327V325.327Z" fill="url(#paint0_linear)"/>
<path d="M240.02 309.685C243.626 306.078 246.082 301.484 247.076 296.481C248.071 291.479 247.561 286.295 245.609 281.583C243.658 276.871 240.353 272.843 236.114 270.01C231.874 267.176 226.889 265.664 221.79 265.664C216.691 265.664 211.706 267.176 207.466 270.01C203.226 272.843 199.922 276.871 197.971 281.583C196.019 286.295 195.509 291.479 196.503 296.481C197.498 301.484 199.954 306.078 203.559 309.685C208.395 314.521 214.952 317.237 221.79 317.237C228.628 317.237 235.185 314.521 240.02 309.685ZM215.709 285.373C216.911 284.171 218.442 283.353 220.109 283.021C221.776 282.689 223.504 282.86 225.075 283.51C226.645 284.161 227.987 285.262 228.931 286.676C229.876 288.09 230.38 289.751 230.38 291.451C230.38 293.151 229.876 294.813 228.931 296.227C227.987 297.64 226.645 298.742 225.075 299.393C223.504 300.043 221.776 300.213 220.109 299.882C218.442 299.55 216.911 298.732 215.709 297.529C214.904 296.735 214.265 295.789 213.829 294.745C213.393 293.702 213.168 292.582 213.168 291.451C213.168 290.32 213.393 289.201 213.829 288.157C214.265 287.114 214.904 286.168 215.709 285.373V285.373Z" fill="url(#paint1_linear)"/>
<path d="M45.4874 303.354L19.7056 329.141C18.0939 330.753 17.1885 332.939 17.1885 335.219C17.1885 337.498 18.0939 339.685 19.7056 341.297C21.3174 342.909 23.5033 343.814 25.7826 343.814C28.0619 343.814 30.2479 342.909 31.8596 341.297L57.6413 315.51C58.4394 314.712 59.0724 313.765 59.5043 312.722C59.9362 311.679 60.1585 310.561 60.1585 309.432C60.1585 308.303 59.9362 307.186 59.5043 306.143C59.0724 305.1 58.4394 304.152 57.6413 303.354C56.8433 302.556 55.8959 301.923 54.8532 301.491C53.8105 301.059 52.6929 300.837 51.5644 300.837C50.4358 300.837 49.3182 301.059 48.2755 301.491C47.2328 301.923 46.2854 302.556 45.4874 303.354Z" fill="url(#paint2_linear)"/>
<path d="M41.9874 429.968C40.3757 428.356 38.19 427.451 35.9109 427.451C33.6319 427.451 31.4461 428.356 29.8345 429.968L4.05262 455.754C3.25451 456.552 2.62139 457.5 2.1894 458.543C1.75741 459.586 1.53501 460.703 1.53491 461.832C1.53471 464.112 2.43997 466.298 4.05155 467.91C5.66313 469.523 7.84901 470.428 10.1283 470.429C12.4076 470.429 14.5937 469.523 16.2055 467.911L41.9874 442.125C42.7856 441.327 43.4188 440.379 43.8508 439.336C44.2828 438.293 44.5052 437.175 44.5052 436.046C44.5052 434.918 44.2828 433.8 43.8508 432.757C43.4188 431.714 42.7856 430.766 41.9874 429.968V429.968Z" fill="url(#paint3_linear)"/>
<path d="M8.59426 403.982C9.72306 403.984 10.841 403.762 11.8839 403.33C12.9268 402.898 13.8741 402.264 14.6713 401.465L57.641 358.488C59.2527 356.876 60.1582 354.689 60.1582 352.409C60.1582 350.13 59.2527 347.943 57.641 346.331C56.0293 344.719 53.8433 343.814 51.564 343.814C49.2847 343.814 47.0987 344.719 45.487 346.331L2.51727 389.309C1.31532 390.511 0.496777 392.042 0.165151 393.71C-0.166474 395.377 0.00371508 397.106 0.654196 398.676C1.30468 400.247 2.40623 401.589 3.81956 402.534C5.23288 403.478 6.8945 403.982 8.59426 403.982V403.982Z" fill="url(#paint4_linear)"/>
<path d="M83.4224 466.668C82.6244 465.87 81.677 465.237 80.6343 464.805C79.5916 464.373 78.4741 464.151 77.3455 464.151C76.2169 464.151 75.0993 464.373 74.0566 464.805C73.0139 465.237 72.0665 465.87 71.2685 466.668L36.8929 501.05C35.2812 502.662 34.3757 504.849 34.3757 507.128C34.3757 509.408 35.2812 511.594 36.8929 513.206C38.5046 514.818 40.6906 515.724 42.9699 515.724C45.2492 515.724 47.4351 514.818 49.0468 513.206L83.4224 478.825C84.2205 478.026 84.8536 477.079 85.2855 476.036C85.7174 474.993 85.9397 473.875 85.9397 472.747C85.9397 471.618 85.7174 470.5 85.2855 469.457C84.8536 468.414 84.2205 467.467 83.4224 466.668V466.668Z" fill="url(#paint5_linear)"/>
<path d="M200.178 440.882L174.396 466.669C172.784 468.281 171.879 470.467 171.879 472.747C171.879 475.026 172.784 477.213 174.396 478.825C176.008 480.437 178.194 481.343 180.473 481.343C182.752 481.343 184.938 480.437 186.55 478.825L212.332 453.038C213.13 452.24 213.763 451.293 214.195 450.25C214.627 449.207 214.849 448.089 214.849 446.96C214.849 445.831 214.627 444.714 214.195 443.671C213.763 442.628 213.13 441.68 212.332 440.882C211.534 440.084 210.586 439.451 209.544 439.019C208.501 438.587 207.383 438.365 206.255 438.365C205.126 438.365 204.009 438.587 202.966 439.019C201.923 439.451 200.976 440.084 200.178 440.882V440.882Z" fill="url(#paint6_linear)"/>
<path d="M152.175 458.073C151.377 457.274 150.429 456.641 149.386 456.209C148.344 455.777 147.226 455.555 146.098 455.555C144.969 455.555 143.851 455.777 142.809 456.209C141.766 456.641 140.819 457.274 140.021 458.073L97.0513 501.05C95.4396 502.662 94.5342 504.848 94.5342 507.128C94.5342 509.408 95.4396 511.594 97.0513 513.206C98.663 514.818 100.849 515.724 103.128 515.724C105.408 515.724 107.594 514.818 109.205 513.206L152.175 470.229C152.973 469.431 153.606 468.483 154.038 467.44C154.47 466.397 154.692 465.28 154.692 464.151C154.692 463.022 154.47 461.904 154.038 460.861C153.606 459.818 152.973 458.871 152.175 458.073V458.073Z" fill="url(#paint7_linear)"/>
<defs>
<linearGradient id="paint0_linear" x1="280.56" y1="0" x2="280.56" y2="464.151" gradientUnits="userSpaceOnUse">
<stop stop-color="white" stop-opacity="0.5"/>
<stop offset="1" stop-color="#8D3DAF"/>
</linearGradient>
<linearGradient id="paint1_linear" x1="221.79" y1="265.664" x2="221.79" y2="317.237" gradientUnits="userSpaceOnUse">
<stop stop-color="white" stop-opacity="0.5"/>
<stop offset="1" stop-color="#8D3DAF"/>
</linearGradient>
<linearGradient id="paint2_linear" x1="38.6735" y1="300.837" x2="38.6735" y2="343.814" gradientUnits="userSpaceOnUse">
<stop stop-color="white" stop-opacity="0.5"/>
<stop offset="1" stop-color="#8D3DAF"/>
</linearGradient>
<linearGradient id="paint3_linear" x1="23.02" y1="427.451" x2="23.02" y2="470.429" gradientUnits="userSpaceOnUse">
<stop stop-color="white" stop-opacity="0.5"/>
<stop offset="1" stop-color="#8D3DAF"/>
</linearGradient>
<linearGradient id="paint4_linear" x1="30.0791" y1="343.814" x2="30.0791" y2="403.982" gradientUnits="userSpaceOnUse">
<stop stop-color="white" stop-opacity="0.5"/>
<stop offset="1" stop-color="#8D3DAF"/>
</linearGradient>
<linearGradient id="paint5_linear" x1="60.1577" y1="464.151" x2="60.1577" y2="515.724" gradientUnits="userSpaceOnUse">
<stop stop-color="white" stop-opacity="0.5"/>
<stop offset="1" stop-color="#8D3DAF"/>
</linearGradient>
<linearGradient id="paint6_linear" x1="193.364" y1="438.365" x2="193.364" y2="481.343" gradientUnits="userSpaceOnUse">
<stop stop-color="white" stop-opacity="0.5"/>
<stop offset="1" stop-color="#8D3DAF"/>
</linearGradient>
<linearGradient id="paint7_linear" x1="124.613" y1="455.555" x2="124.613" y2="515.724" gradientUnits="userSpaceOnUse">
<stop stop-color="white" stop-opacity="0.5"/>
<stop offset="1" stop-color="#8D3DAF"/>
</linearGradient>
</defs>
</svg>
