<svg width="512" height="416" viewBox="0 0 512 416" fill="none" xmlns="http://www.w3.org/2000/svg">
<path d="M482.495 27.5989H461.27V7.50134C461.27 3.3586 457.912 0 453.77 0H408.55C404.408 0 401.05 3.3586 401.05 7.50134V27.5989H153.269V7.50134C153.269 3.3586 149.911 0 145.769 0H100.549C96.4074 0 93.0494 3.3586 93.0494 7.50134V27.5989H75.5274C57.2144 27.5989 42.3174 42.4996 42.3174 60.8149V243.339C42.3174 247.481 45.6754 250.84 49.8174 250.84C53.9594 250.84 57.3174 247.481 57.3174 243.339V60.8159C57.3174 50.7731 65.4864 42.6026 75.5274 42.6026H482.495C490.493 42.6026 497 49.1108 497 57.1102V305.186C497 313.185 490.493 319.693 482.495 319.693H466.511V291.302C466.511 287.159 463.153 283.801 459.011 283.801H378.424C374.282 283.801 370.924 287.159 370.924 291.302V319.693H250.715L279.093 311.932C293.791 307.921 306.672 299.574 316.345 287.791L364.545 229.06C365.505 227.894 366.119 226.383 366.234 224.875L370.484 168.881C370.904 163.346 367.545 157.911 362.442 155.775C364.714 154.486 366.251 152.049 366.251 149.25C366.251 145.107 362.893 141.748 358.751 141.748H325.885C321.743 141.748 318.385 145.107 318.385 149.25C318.385 153.392 321.743 156.751 325.885 156.751H350.416C349.595 157.271 348.818 157.886 348.105 158.6L320.582 186.128C315.266 191.443 310.89 198.118 306.179 203.978C303.583 207.206 304.095 211.928 307.323 214.524C310.551 217.121 315.272 216.609 317.868 213.38L326.497 202.651L348.64 224.798L304.753 278.273C297.065 287.637 286.827 294.273 275.141 297.461L156.709 331.547C147.537 334.489 152.107 348.775 161.288 345.834L187.338 337.48V400.336H176.918C172.776 400.336 169.418 403.694 169.418 407.837C169.418 411.98 172.776 415.338 176.918 415.338H222.766C226.908 415.338 230.266 411.98 230.266 407.837C230.266 403.694 226.908 400.336 222.766 400.336H202.339V334.695H482.495C498.764 334.695 512 321.457 512 305.185V57.1092C512 40.8373 498.764 27.5989 482.495 27.5989V27.5989ZM416.05 15.0027H446.27V27.5949H416.05V15.0027ZM108.049 15.0027H138.269V27.5949H108.049V15.0027ZM355.145 172.775L352.514 207.454L336.493 191.431L355.145 172.775ZM385.924 319.692V298.802H451.511V319.692H385.924Z" fill="url(#paint0_linear)"/>
<path d="M141.106 400.336H44.8099V360.505C44.8099 335.202 50.6439 309.956 61.7749 287.231C67.8629 274.806 80.7319 266.778 94.5598 266.778H220.94C247.355 266.778 273.05 257.441 293.294 240.487C296.47 237.828 296.889 233.096 294.23 229.92C291.57 226.743 286.84 226.325 283.665 228.984C266.117 243.681 243.841 251.775 220.941 251.775H166.629C175.043 243.015 180.231 231.135 180.231 218.059V190.513C199.511 189.241 214.811 173.157 214.811 153.557C214.811 133.125 198.195 116.501 177.771 116.501C165.285 116.208 153.399 119.114 144.648 128.637C140.371 133.274 134.303 135.933 128.001 135.933H107.391C90.1758 135.933 76.1709 149.946 76.1709 167.169V223.389C76.1709 229.772 77.7049 236.036 81.5609 241.218C83.2999 243.555 85.4399 245.588 87.8589 247.21C90.4679 248.961 94.2728 249.595 96.3678 251.775C76.2889 251.438 57.2189 262.439 48.3059 280.63C36.1709 305.404 29.811 332.919 29.811 360.505V400.336H7.49999C3.35799 400.336 0 403.694 0 407.837C0 411.98 3.35799 415.338 7.49999 415.338H141.106C145.248 415.338 148.606 411.98 148.606 407.837C148.606 403.694 145.248 400.336 141.106 400.336V400.336ZM129.39 251.709C125.205 251.452 121.138 250.405 117.387 248.672C119.127 247.778 120.814 246.677 122.323 245.432C128.557 240.287 131.991 232.672 131.991 223.99V190.604H165.231V218.059C165.231 236.65 150.104 251.775 131.511 251.775C130.715 251.775 130.044 251.755 129.39 251.709V251.709ZM91.1698 223.39V167.17C91.1698 158.219 98.4458 150.937 107.39 150.937H128C138.479 150.937 148.565 146.517 155.682 138.8C161.575 132.387 169.573 131.199 177.77 131.503C189.923 131.503 199.81 141.397 199.81 153.557C199.81 165.713 189.923 175.601 177.77 175.601H124.49C120.348 175.601 116.99 178.96 116.99 183.103V223.99C116.99 232.741 109.27 238.235 100.904 236.638C94.2038 235.36 91.1698 229.905 91.1698 223.39V223.39Z" fill="url(#paint1_linear)"/>
<path d="M256.736 114.566H297.582C301.724 114.566 305.082 111.207 305.082 107.064V79.4613C305.082 75.3186 301.724 71.96 297.582 71.96H256.736C252.594 71.96 249.236 75.3186 249.236 79.4613V107.064C249.236 111.207 252.594 114.566 256.736 114.566ZM264.236 86.9627H290.082V99.5629H264.236V86.9627Z" fill="url(#paint2_linear)"/>
<path d="M249.236 163.05C249.236 167.193 252.594 170.551 256.736 170.551H297.582C301.724 170.551 305.082 167.193 305.082 163.05V135.446C305.082 131.303 301.724 127.945 297.582 127.945H256.736C252.594 127.945 249.236 131.303 249.236 135.446V163.05ZM264.236 142.947H290.082V155.549H264.236V142.947Z" fill="url(#paint3_linear)"/>
<path d="M325.886 100.764H459.011C463.153 100.764 466.511 97.4053 466.511 93.2625C466.511 89.1198 463.153 85.7612 459.011 85.7612H325.886C321.744 85.7612 318.386 89.1198 318.386 93.2625C318.386 97.4053 321.744 100.764 325.886 100.764Z" fill="url(#paint4_linear)"/>
<defs>
<linearGradient id="paint0_linear" x1="277.158" y1="0" x2="277.158" y2="415.338" gradientUnits="userSpaceOnUse">
<stop stop-color="white" stop-opacity="0.5"/>
<stop offset="1" stop-color="#8D3DAF"/>
</linearGradient>
<linearGradient id="paint1_linear" x1="147.99" y1="116.481" x2="147.99" y2="415.338" gradientUnits="userSpaceOnUse">
<stop stop-color="white" stop-opacity="0.5"/>
<stop offset="1" stop-color="#8D3DAF"/>
</linearGradient>
<linearGradient id="paint2_linear" x1="277.159" y1="71.96" x2="277.159" y2="114.566" gradientUnits="userSpaceOnUse">
<stop stop-color="white" stop-opacity="0.5"/>
<stop offset="1" stop-color="#8D3DAF"/>
</linearGradient>
<linearGradient id="paint3_linear" x1="277.159" y1="127.945" x2="277.159" y2="170.551" gradientUnits="userSpaceOnUse">
<stop stop-color="white" stop-opacity="0.5"/>
<stop offset="1" stop-color="#8D3DAF"/>
</linearGradient>
<linearGradient id="paint4_linear" x1="392.449" y1="85.7612" x2="392.449" y2="100.764" gradientUnits="userSpaceOnUse">
<stop stop-color="white" stop-opacity="0.5"/>
<stop offset="1" stop-color="#8D3DAF"/>
</linearGradient>
</defs>
</svg>
