<svg width="32" height="22" viewBox="0 0 32 22" fill="none" xmlns="http://www.w3.org/2000/svg">
<path fill-rule="evenodd" clip-rule="evenodd" d="M26.912 0.184C28.83 0.292 29.772 0.576 30.64 2.12C31.544 3.662 32 6.318 32 10.996V11.002V11.012C32 15.668 31.544 18.344 30.642 19.87C29.774 21.414 28.832 21.694 26.914 21.824C24.996 21.934 20.178 22 16.004 22C11.822 22 7.002 21.934 5.086 21.822C3.172 21.692 2.23 21.412 1.354 19.868C0.46 18.342 0 15.666 0 11.01V11.006V11V10.994C0 6.318 0.46 3.662 1.354 2.12C2.23 0.574 3.174 0.292 5.088 0.182C7.002 0.0540002 11.822 0 16.004 0C20.178 0 24.996 0.054 26.912 0.184ZM22 11L12 5V17L22 11Z" fill="white"/>
</svg>
